#tb 0: 1/25
#tb 1: 1/25
0,          0,          0,        1,   114063, 0xaf969bad
1,          0,          0,        1,   114063, 0x0b017c2c
0,          1,          1,        1,   114063, 0x331607fc
1,          1,          1,        1,   114063, 0x61e9eb3f
0,          2,          2,        1,   114063, 0xa7afd94c
1,          2,          2,        1,   114063, 0x4e5baae8
0,          3,          3,        1,   114063, 0xb8431b5c
1,          3,          3,        1,   114063, 0x9213f33e
0,          4,          4,        1,   114063, 0x4eda3173
1,          4,          4,        1,   114063, 0x135912d8
0,          5,          5,        1,   114063, 0x7b411432
1,          5,          5,        1,   114063, 0xc49f22ad
0,          6,          6,        1,   114063, 0xd77d50e7
1,          6,          6,        1,   114063, 0x30b3b926
0,          7,          7,        1,   114063, 0xf7aca927
1,          7,          7,        1,   114063, 0x2c04706f
0,          8,          8,        1,   114063, 0xabd61a68
1,          8,          8,        1,   114063, 0xba25f3a8
0,          9,          9,        1,   114063, 0xa38559e7
1,          9,          9,        1,   114063, 0x3a706d18
0,         10,         10,        1,   114063, 0x03ad76fb
1,         10,         10,        1,   114063, 0x94405e4f
0,         11,         11,        1,   114063, 0x7bde5383
1,         11,         11,        1,   114063, 0x1142374b
0,         12,         12,        1,   114063, 0x4d777276
1,         12,         12,        1,   114063, 0x17d9c8d5
0,         13,         13,        1,   114063, 0xd311afc9
1,         13,         13,        1,   114063, 0x87f38044
0,         14,         14,        1,   114063, 0x0c410da5
1,         14,         14,        1,   114063, 0xac3b0e31
